<svg viewBox='0 0 24 24'><path fill="#EA4335" d="m15.951 15.25.949 3.271 2.486 2.678c.336-.194.623-.475.824-.824l2.31-4c.201-.348.301-.736.301-1.125l-3.547-.688-3.323.688Z" stroke='transparent'/><path fill="#188038" d="M15.345 2.301A2.251 2.251 0 0 0 14.22 2H9.602c-.4 0-.79.11-1.125.301l.995 3.351 2.43 2.58.008.018 2.448-2.611.987-3.338Z" stroke='transparent'/><path fill="#1967D2" d="m7.869 15.25-3.542-.813L1 15.25c0 .387.1.775.3 1.124l2.31 4.001c.201.348.488.629.824.824l2.449-2.523.986-3.426Z" stroke='transparent'/><path fill="#FBBC04" d="m19.344 8.625-3.175-5.5a2.244 2.244 0 0 0-.824-.824L11.91 8.25l4.041 7h6.87c0-.389-.1-.776-.302-1.125l-3.175-5.5Z" stroke='transparent'/><path fill="#4285F4" d="M15.951 15.25H7.87l-3.435 5.949a2.25 2.25 0 0 0 1.125.301h12.7a2.25 2.25 0 0 0 1.126-.301L15.95 15.25Z" stroke='transparent'/><path fill="#34A853" d="M11.91 8.25 8.476 2.301a2.244 2.244 0 0 0-.822.822L1.3 14.129c-.2.347-.3.735-.3 1.121h6.869l4.041-7Z" stroke='transparent'/></svg>